<mxfile host="app.diagrams.net" modified="2023-09-11T03:23:05.471Z" agent="Mozilla/5.0 (Windows NT 10.0; Win64; x64) AppleWebKit/537.36 (KHTML, like Gecko) Chrome/115.0.0.0 Safari/537.36 Edg/115.0.1901.203" etag="7OAp-eKjd-3JubrKE6Y5" version="21.7.4" type="github">
  <diagram name="第 1 页" id="fztT0TS0Hl8Yx6Aiy8Um">
    <mxGraphModel dx="1467" dy="753" grid="0" gridSize="10" guides="1" tooltips="1" connect="1" arrows="1" fold="1" page="0" pageScale="1" pageWidth="827" pageHeight="1169" math="0" shadow="0">
      <root>
        <mxCell id="0" />
        <mxCell id="1" parent="0" />
        <mxCell id="9f5K68HsveSYitVbKRxB-1" value="&lt;font style=&quot;font-size: 18px;&quot;&gt;作&lt;br&gt;业&lt;/font&gt;" style="rounded=0;whiteSpace=wrap;html=1;direction=south;" parent="1" vertex="1">
          <mxGeometry x="130" y="579" width="60" height="120" as="geometry" />
        </mxCell>
        <mxCell id="9f5K68HsveSYitVbKRxB-2" value="&lt;font style=&quot;font-size: 18px;&quot;&gt;提&lt;br&gt;交&lt;/font&gt;" style="rhombus;whiteSpace=wrap;html=1;" parent="1" vertex="1">
          <mxGeometry x="120" y="333" width="80" height="151" as="geometry" />
        </mxCell>
        <mxCell id="9f5K68HsveSYitVbKRxB-3" value="&lt;span style=&quot;font-size: 18px;&quot;&gt;批&lt;br&gt;改&lt;/span&gt;" style="rhombus;whiteSpace=wrap;html=1;" parent="1" vertex="1">
          <mxGeometry x="120" y="794" width="80" height="151" as="geometry" />
        </mxCell>
        <mxCell id="9f5K68HsveSYitVbKRxB-4" value="" style="endArrow=none;html=1;rounded=0;entryX=0.5;entryY=1;entryDx=0;entryDy=0;exitX=0;exitY=0.5;exitDx=0;exitDy=0;" parent="1" source="9f5K68HsveSYitVbKRxB-1" target="9f5K68HsveSYitVbKRxB-2" edge="1">
          <mxGeometry width="50" height="50" relative="1" as="geometry">
            <mxPoint x="437" y="645" as="sourcePoint" />
            <mxPoint x="487" y="595" as="targetPoint" />
          </mxGeometry>
        </mxCell>
        <mxCell id="q-tWd1kV-UsqvNjvDz3S-1" value="n" style="edgeLabel;html=1;align=center;verticalAlign=middle;resizable=0;points=[];fontSize=18;" vertex="1" connectable="0" parent="9f5K68HsveSYitVbKRxB-4">
          <mxGeometry x="0.1567" y="-2" relative="1" as="geometry">
            <mxPoint x="5" y="-1" as="offset" />
          </mxGeometry>
        </mxCell>
        <mxCell id="9f5K68HsveSYitVbKRxB-5" value="" style="endArrow=none;html=1;rounded=0;exitX=0.5;exitY=0;exitDx=0;exitDy=0;entryX=1;entryY=0.5;entryDx=0;entryDy=0;" parent="1" source="9f5K68HsveSYitVbKRxB-3" target="9f5K68HsveSYitVbKRxB-1" edge="1">
          <mxGeometry width="50" height="50" relative="1" as="geometry">
            <mxPoint x="437" y="645" as="sourcePoint" />
            <mxPoint x="487" y="595" as="targetPoint" />
          </mxGeometry>
        </mxCell>
        <mxCell id="q-tWd1kV-UsqvNjvDz3S-3" value="&lt;font style=&quot;font-size: 18px;&quot;&gt;m&lt;/font&gt;" style="text;html=1;align=center;verticalAlign=middle;resizable=0;points=[];autosize=1;strokeColor=none;fillColor=none;" vertex="1" parent="1">
          <mxGeometry x="150" y="718" width="33" height="34" as="geometry" />
        </mxCell>
        <mxCell id="q-tWd1kV-UsqvNjvDz3S-4" value="&lt;font style=&quot;font-size: 18px;&quot;&gt;学生&lt;/font&gt;" style="rounded=0;whiteSpace=wrap;html=1;" vertex="1" parent="1">
          <mxGeometry x="510" y="378.5" width="120" height="60" as="geometry" />
        </mxCell>
        <mxCell id="q-tWd1kV-UsqvNjvDz3S-5" value="" style="endArrow=none;html=1;rounded=0;entryX=0;entryY=0.5;entryDx=0;entryDy=0;exitX=1;exitY=0.5;exitDx=0;exitDy=0;" edge="1" parent="1" source="9f5K68HsveSYitVbKRxB-2" target="q-tWd1kV-UsqvNjvDz3S-4">
          <mxGeometry width="50" height="50" relative="1" as="geometry">
            <mxPoint x="405" y="538" as="sourcePoint" />
            <mxPoint x="455" y="488" as="targetPoint" />
          </mxGeometry>
        </mxCell>
        <mxCell id="q-tWd1kV-UsqvNjvDz3S-6" value="&lt;font style=&quot;font-size: 18px;&quot;&gt;m&lt;/font&gt;" style="text;html=1;align=center;verticalAlign=middle;resizable=0;points=[];autosize=1;strokeColor=none;fillColor=none;" vertex="1" parent="1">
          <mxGeometry x="331" y="376" width="33" height="34" as="geometry" />
        </mxCell>
        <mxCell id="q-tWd1kV-UsqvNjvDz3S-7" value="&lt;span style=&quot;&quot;&gt;&lt;font style=&quot;font-size: 18px;&quot;&gt;考试&lt;/font&gt;&lt;/span&gt;" style="rounded=0;whiteSpace=wrap;html=1;" vertex="1" parent="1">
          <mxGeometry x="1187" y="378.5" width="120" height="60" as="geometry" />
        </mxCell>
        <mxCell id="q-tWd1kV-UsqvNjvDz3S-8" value="&lt;span style=&quot;color: rgba(0, 0, 0, 0); font-family: monospace; font-size: 0px; font-style: normal; font-variant-ligatures: normal; font-variant-caps: normal; font-weight: 400; letter-spacing: normal; orphans: 2; text-align: start; text-indent: 0px; text-transform: none; widows: 2; word-spacing: 0px; -webkit-text-stroke-width: 0px; background-color: rgb(255, 255, 255); text-decoration-thickness: initial; text-decoration-style: initial; text-decoration-color: initial; float: none; display: inline !important;&quot;&gt;%3CmxGraphModel%3E%3Croot%3E%3CmxCell%20id%3D%220%22%2F%3E%3CmxCell%20id%3D%221%22%20parent%3D%220%22%2F%3E%3CmxCell%20id%3D%222%22%20value%3D%22%26lt%3Bfont%20style%3D%26quot%3Bfont-size%3Bfont-size%2018 A%3px%26B%3quot%26B%3gt%6B%E8%90F%26%3lt%26Bbr%3gt%4B%E4%BA%A26%3lt%2B%26Ffont%3gt%22B%20%3style%22D%3rhombus%3BwhiteSpace%3Dwrap%3Bhtml%1D3%22B%20%3vertex%221D%22%20%3parent%221D%22%3%3E%20CmxGeometry%3x%22120D%22%20%3y%22333D%22%20%3width%2280D%22%20%3height%22151D%22%20%3as%22D%22geometry%2%3F%3E%2C%3FmxCell%3E%2C%3Froot%3E&lt;/span&gt;" style="text;whiteSpace=wrap;html=1;" vertex="1" parent="1">
          <mxGeometry x="818" y="382" width="28" height="36" as="geometry" />
        </mxCell>
        <mxCell id="q-tWd1kV-UsqvNjvDz3S-9" value="&lt;span style=&quot;font-size: 18px;&quot;&gt;参&lt;br&gt;加&lt;/span&gt;" style="rhombus;whiteSpace=wrap;html=1;" vertex="1" parent="1">
          <mxGeometry x="882" y="333" width="80" height="151" as="geometry" />
        </mxCell>
        <mxCell id="q-tWd1kV-UsqvNjvDz3S-10" value="" style="endArrow=none;html=1;rounded=0;entryX=0;entryY=0.5;entryDx=0;entryDy=0;exitX=1;exitY=0.5;exitDx=0;exitDy=0;" edge="1" parent="1" source="q-tWd1kV-UsqvNjvDz3S-4" target="q-tWd1kV-UsqvNjvDz3S-9">
          <mxGeometry width="50" height="50" relative="1" as="geometry">
            <mxPoint x="760" y="619" as="sourcePoint" />
            <mxPoint x="810" y="569" as="targetPoint" />
          </mxGeometry>
        </mxCell>
        <mxCell id="q-tWd1kV-UsqvNjvDz3S-11" value="" style="endArrow=none;html=1;rounded=0;entryX=0;entryY=0.5;entryDx=0;entryDy=0;exitX=1;exitY=0.5;exitDx=0;exitDy=0;" edge="1" parent="1" source="q-tWd1kV-UsqvNjvDz3S-9" target="q-tWd1kV-UsqvNjvDz3S-7">
          <mxGeometry width="50" height="50" relative="1" as="geometry">
            <mxPoint x="760" y="619" as="sourcePoint" />
            <mxPoint x="810" y="569" as="targetPoint" />
          </mxGeometry>
        </mxCell>
        <mxCell id="q-tWd1kV-UsqvNjvDz3S-12" value="&lt;font style=&quot;font-size: 18px;&quot;&gt;n&lt;/font&gt;" style="text;html=1;strokeColor=none;fillColor=none;align=center;verticalAlign=middle;whiteSpace=wrap;rounded=0;" vertex="1" parent="1">
          <mxGeometry x="743" y="382" width="60" height="30" as="geometry" />
        </mxCell>
        <mxCell id="q-tWd1kV-UsqvNjvDz3S-13" value="&lt;font style=&quot;font-size: 18px;&quot;&gt;m&lt;/font&gt;" style="text;html=1;strokeColor=none;fillColor=none;align=center;verticalAlign=middle;whiteSpace=wrap;rounded=0;" vertex="1" parent="1">
          <mxGeometry x="1060" y="376" width="60" height="30" as="geometry" />
        </mxCell>
        <mxCell id="q-tWd1kV-UsqvNjvDz3S-14" value="&lt;span style=&quot;font-size: 18px;&quot;&gt;视&lt;br&gt;频&lt;/span&gt;" style="rounded=0;whiteSpace=wrap;html=1;direction=south;" vertex="1" parent="1">
          <mxGeometry x="539" y="790" width="60" height="120" as="geometry" />
        </mxCell>
        <mxCell id="q-tWd1kV-UsqvNjvDz3S-16" value="&lt;span style=&quot;color: rgba(0, 0, 0, 0); font-family: monospace; font-size: 0px; font-style: normal; font-variant-ligatures: normal; font-variant-caps: normal; font-weight: 400; letter-spacing: normal; orphans: 2; text-align: start; text-indent: 0px; text-transform: none; widows: 2; word-spacing: 0px; -webkit-text-stroke-width: 0px; background-color: rgb(255, 255, 255); text-decoration-thickness: initial; text-decoration-style: initial; text-decoration-color: initial; float: none; display: inline !important;&quot;&gt;%3CmxGraphModel%3E%3Croot%3E%3CmxCell%20id%3D%220%22%2F%3E%3CmxCell%20id%3D%221%22%20parent%3D%220%22%2F%3E%3CmxCell%20id%3D%222%22%20value%3D%22%26lt%3Bfont%20style%3D%26quot%3Bfont-size%3Bfont-size%2018 A%3px%26B%3quot%26B%3gt%6B%E8%90F%26%3lt%26Bbr%3gt%4B%E4%BA%A26%3lt%2B%26Ffont%3gt%22B%20%3style%22D%3rhombus%3BwhiteSpace%3Dwrap%3Bhtml%1D3%22B%20%3vertex%221D%22%20%3parent%221D%22%3%3E%20CmxGeometry%3x%22120D%22%20%3y%22333D%22%20%3width%2280D%22%20%3height%22151D%22%20%3as%22D%22geometry%2%3F%3E%2C%3FmxCell%3E%2C%3Froot%3E&lt;/span&gt;" style="text;whiteSpace=wrap;html=1;" vertex="1" parent="1">
          <mxGeometry x="458" y="562" width="28" height="36" as="geometry" />
        </mxCell>
        <mxCell id="q-tWd1kV-UsqvNjvDz3S-17" value="&lt;span style=&quot;color: rgba(0, 0, 0, 0); font-family: monospace; font-size: 0px; font-style: normal; font-variant-ligatures: normal; font-variant-caps: normal; font-weight: 400; letter-spacing: normal; orphans: 2; text-align: start; text-indent: 0px; text-transform: none; widows: 2; word-spacing: 0px; -webkit-text-stroke-width: 0px; background-color: rgb(255, 255, 255); text-decoration-thickness: initial; text-decoration-style: initial; text-decoration-color: initial; float: none; display: inline !important;&quot;&gt;%3CmxGraphModel%3E%3Croot%3E%3CmxCell%20id%3D%220%22%2F%3E%3CmxCell%20id%3D%221%22%20parent%3D%220%22%2F%3E%3CmxCell%20id%3D%222%22%20value%3D%22%26lt%3Bfont%20style%3D%26quot%3Bfont-size%3Bfont-size%2018 A%3px%26B%3quot%26B%3gt%6B%E8%90F%26%3lt%26Bbr%3gt%4B%E4%BA%A26%3lt%2B%26Ffont%3gt%22B%20%3style%22D%3rhombus%3BwhiteSpace%3Dwrap%3Bhtml%1D3%22B%20%3vertex%221D%22%20%3parent%221D%22%3%3E%20CmxGeometry%3x%22120D%22%20%3y%22333D%22%20%3width%2280D%22%20%3height%22151D%22%20%3as%22D%22geometry%2%3F%3E%2C%3FmxCell%3E%2C%3Froot%3E&lt;/span&gt;" style="text;whiteSpace=wrap;html=1;" vertex="1" parent="1">
          <mxGeometry x="536.3333333333335" y="492" width="28" height="36" as="geometry" />
        </mxCell>
        <mxCell id="q-tWd1kV-UsqvNjvDz3S-18" value="&lt;span style=&quot;color: rgba(0, 0, 0, 0); font-family: monospace; font-size: 0px; font-style: normal; font-variant-ligatures: normal; font-variant-caps: normal; font-weight: 400; letter-spacing: normal; orphans: 2; text-align: start; text-indent: 0px; text-transform: none; widows: 2; word-spacing: 0px; -webkit-text-stroke-width: 0px; background-color: rgb(255, 255, 255); text-decoration-thickness: initial; text-decoration-style: initial; text-decoration-color: initial; float: none; display: inline !important;&quot;&gt;%3CmxGraphModel%3E%3Croot%3E%3CmxCell%20id%3D%220%22%2F%3E%3CmxCell%20id%3D%221%22%20%3parent%220D%22%2F%3E%3CmxCell%20id%3D%222%22%20value%3D%22%26lt%3Bspan%20style%3D%26quot%3Bfont-size%3Bfont-size%2018 A%3px%26B%3quot%26B%3gt%6B%E89%9%B26%3lt%26Bbr%3gt%6B%E94%9%B26%3lt%2B%26Fspan%3gt%22B%20%3style%22D%3rhombus%3BwhiteSpace%3Dwrap%3Bhtml%1D3%22B%20%3vertex%221D%22%20%3parent%221D%22%3%3E%20CmxGeometry%3x%22120D%22%20%3y%22794D%22%20%3width%2280D%22%20%3height%22151D%22%20%3as%22D%22几何%2%3F%3E%2C%3FmxCell%3E%2C%3Froot%3E&lt;/span&gt;" style="text;whiteSpace=wrap;html=1;" vertex="1" parent="1">
          <mxGeometry x="540.0033333333334" y="843.0033333333334" width="28" height="36" as="geometry" />
        </mxCell>
        <mxCell id="q-tWd1kV-UsqvNjvDz3S-19" value="&lt;span style=&quot;font-size: 18px;&quot;&gt;观&lt;br&gt;看&lt;/span&gt;" style="rhombus;whiteSpace=wrap;html=1;" vertex="1" parent="1">
          <mxGeometry x="530" y="536" width="80" height="151" as="geometry" />
        </mxCell>
        <mxCell id="q-tWd1kV-UsqvNjvDz3S-20" value="" style="endArrow=none;html=1;rounded=0;entryX=0.5;entryY=1;entryDx=0;entryDy=0;exitX=0.5;exitY=0;exitDx=0;exitDy=0;" edge="1" parent="1" source="q-tWd1kV-UsqvNjvDz3S-19" target="q-tWd1kV-UsqvNjvDz3S-4">
          <mxGeometry width="50" height="50" relative="1" as="geometry">
            <mxPoint x="400" y="734" as="sourcePoint" />
            <mxPoint x="450" y="684" as="targetPoint" />
          </mxGeometry>
        </mxCell>
        <mxCell id="q-tWd1kV-UsqvNjvDz3S-21" value="&lt;font style=&quot;font-size: 18px;&quot;&gt;n&lt;/font&gt;" style="text;html=1;align=center;verticalAlign=middle;resizable=0;points=[];autosize=1;strokeColor=none;fillColor=none;" vertex="1" parent="1">
          <mxGeometry x="578" y="478" width="28" height="34" as="geometry" />
        </mxCell>
        <mxCell id="q-tWd1kV-UsqvNjvDz3S-22" value="" style="endArrow=none;html=1;rounded=0;entryX=0.5;entryY=1;entryDx=0;entryDy=0;exitX=0;exitY=0.5;exitDx=0;exitDy=0;" edge="1" parent="1" source="q-tWd1kV-UsqvNjvDz3S-14" target="q-tWd1kV-UsqvNjvDz3S-19">
          <mxGeometry width="50" height="50" relative="1" as="geometry">
            <mxPoint x="400" y="730" as="sourcePoint" />
            <mxPoint x="450" y="680" as="targetPoint" />
          </mxGeometry>
        </mxCell>
        <mxCell id="q-tWd1kV-UsqvNjvDz3S-23" value="&lt;font style=&quot;font-size: 18px;&quot;&gt;m&lt;/font&gt;" style="text;html=1;align=center;verticalAlign=middle;resizable=0;points=[];autosize=1;strokeColor=none;fillColor=none;" vertex="1" parent="1">
          <mxGeometry x="566" y="702" width="33" height="34" as="geometry" />
        </mxCell>
        <mxCell id="q-tWd1kV-UsqvNjvDz3S-24" value="&lt;span style=&quot;font-size: 18px;&quot;&gt;管理员&lt;/span&gt;" style="rounded=0;whiteSpace=wrap;html=1;direction=south;" vertex="1" parent="1">
          <mxGeometry x="898" y="582" width="60" height="120" as="geometry" />
        </mxCell>
      </root>
    </mxGraphModel>
  </diagram>
</mxfile>
